<svg width="20" height="20" viewBox="0 0 20 20" fill="none" xmlns="http://www.w3.org/2000/svg">
<path d="M11.6666 9.16699H8.33325V10.8337H11.6666V9.16699Z" fill="black"/>
<path fill-rule="evenodd" clip-rule="evenodd" d="M5.83325 4.16699V3.33366C5.83325 2.4132 6.57941 1.66699 7.49992 1.66699H12.4999C13.4204 1.66699 14.1666 2.4132 14.1666 3.33366V4.16699H16.6666C18.0473 4.16699 19.1666 5.28628 19.1666 6.66699V15.0003C19.1666 16.381 18.0473 17.5003 16.6666 17.5003H3.33325C1.95253 17.5003 0.833252 16.381 0.833252 15.0003V6.66699C0.833252 5.28628 1.95253 4.16699 3.33325 4.16699H5.83325ZM7.49992 3.33366H12.4999V4.16699H7.49992V3.33366ZM3.33325 5.83366C2.87305 5.83366 2.49992 6.20674 2.49992 6.66699V11.667H17.4999V6.66699C17.4999 6.20674 17.1268 5.83366 16.6666 5.83366H3.33325ZM2.49992 15.0003V13.3337H17.4999V15.0003C17.4999 15.4606 17.1268 15.8337 16.6666 15.8337H3.33325C2.87305 15.8337 2.49992 15.4606 2.49992 15.0003Z" fill="black"/>
</svg>
