<svg width="20" height="21" viewBox="0 0 20 21" fill="none" xmlns="http://www.w3.org/2000/svg">
<path fill-rule="evenodd" clip-rule="evenodd" d="M10.0432 1.5415H9.9565C9.20734 1.5415 8.58317 1.5415 8.08817 1.60817C7.56484 1.67817 7.09234 1.83317 6.71317 2.21234C6.33317 2.59234 6.17817 3.06484 6.10817 3.58734C6.06067 3.94317 6.0465 4.79234 6.04317 5.52067C4.35817 5.5765 3.34567 5.77317 2.64317 6.4765C1.6665 7.45234 1.6665 9.024 1.6665 12.1665C1.6665 15.309 1.6665 16.8807 2.64317 17.8565C3.619 18.8332 5.19067 18.8332 8.33317 18.8332H11.6665C14.809 18.8332 16.3807 18.8332 17.3565 17.8565C18.3332 16.8807 18.3332 15.309 18.3332 12.1665C18.3332 9.024 18.3332 7.45234 17.3565 6.4765C16.654 5.77317 15.6415 5.5765 13.9565 5.5215C13.9532 4.79234 13.9398 3.94317 13.8915 3.58817C13.8215 3.06484 13.6665 2.59234 13.2865 2.21317C12.9073 1.83317 12.4348 1.67817 11.9115 1.60817C11.4165 1.5415 10.7915 1.5415 10.0432 1.5415ZM12.7065 5.5015C12.7023 4.79567 12.6907 4.0365 12.6532 3.754C12.6007 3.36984 12.5115 3.20484 12.4032 3.0965C12.2948 2.98817 12.1298 2.899 11.7448 2.8465C11.3432 2.79317 10.8032 2.7915 9.99984 2.7915C9.1965 2.7915 8.6565 2.79317 8.254 2.84734C7.86984 2.899 7.70484 2.98817 7.5965 3.09734C7.48817 3.20567 7.399 3.36984 7.3465 3.754C7.309 4.03734 7.2965 4.79567 7.29317 5.5015C7.619 5.49984 7.9665 5.49984 8.33317 5.49984H11.6665C12.034 5.49984 12.3807 5.49984 12.7065 5.5015ZM9.99984 8.20817C10.1656 8.20817 10.3246 8.27402 10.4418 8.39123C10.559 8.50844 10.6248 8.66741 10.6248 8.83317V8.8415C11.5323 9.06984 12.2915 9.78567 12.2915 10.7773C12.2915 10.9431 12.2257 11.1021 12.1084 11.2193C11.9912 11.3365 11.8323 11.4023 11.6665 11.4023C11.5007 11.4023 11.3418 11.3365 11.2246 11.2193C11.1074 11.1021 11.0415 10.9431 11.0415 10.7773C11.0415 10.4573 10.6865 10.014 9.99984 10.014C9.31317 10.014 8.95817 10.4573 8.95817 10.7773C8.95817 11.0973 9.31317 11.5415 9.99984 11.5415C11.154 11.5415 12.2915 12.3415 12.2915 13.5557C12.2915 14.5473 11.5323 15.2623 10.6248 15.4915V15.4998C10.6248 15.6656 10.559 15.8246 10.4418 15.9418C10.3246 16.059 10.1656 16.1248 9.99984 16.1248C9.83408 16.1248 9.67511 16.059 9.5579 15.9418C9.44069 15.8246 9.37484 15.6656 9.37484 15.4998V15.4915C8.46734 15.2632 7.70817 14.5473 7.70817 13.5557C7.70817 13.3899 7.77402 13.2309 7.89123 13.1137C8.00844 12.9965 8.16741 12.9307 8.33317 12.9307C8.49893 12.9307 8.6579 12.9965 8.77511 13.1137C8.89232 13.2309 8.95817 13.3899 8.95817 13.5557C8.95817 13.8757 9.31317 14.319 9.99984 14.319C10.6865 14.319 11.0415 13.8757 11.0415 13.5557C11.0415 13.2357 10.6865 12.7915 9.99984 12.7915C8.84567 12.7915 7.70817 11.9915 7.70817 10.7773C7.70817 9.78567 8.46734 9.06984 9.37484 8.8415V8.83317C9.37484 8.66741 9.44069 8.50844 9.5579 8.39123C9.67511 8.27402 9.83408 8.20817 9.99984 8.20817Z" fill="#34C759"/>
</svg>
