<svg width="20" height="20" viewBox="0 0 20 20" fill="none" xmlns="http://www.w3.org/2000/svg">
<path d="M2.5 1.6665H5C5.23333 1.6665 5.44167 1.75817 5.59167 1.90817L7.325 3.64984L7.99167 2.9915C8.33333 2.6665 8.75 2.49984 9.16667 2.49984H14.1667C14.5833 2.49984 15 2.6665 15.3417 2.9915L16.175 3.82484C16.5 4.1665 16.6667 4.58317 16.6667 4.99984V15.8332C16.6667 16.2752 16.4911 16.6991 16.1785 17.0117C15.866 17.3242 15.442 17.4998 15 17.4998H6.66667C6.22464 17.4998 5.80072 17.3242 5.48816 17.0117C5.17559 16.6991 5 16.2752 5 15.8332V6.6665C5 6.24984 5.16667 5.83317 5.49167 5.4915L6.15 4.82484L4.65833 3.33317H2.5V1.6665ZM9.16667 4.1665V5.83317H14.1667V4.1665H9.16667ZM9.50833 9.1665L7.84167 7.49984H6.66667V8.67484L8.33333 10.3415V12.9915L6.66667 14.6582V15.8332H7.84167L9.50833 14.1665H12.1583L13.825 15.8332H15V14.6582L13.3333 12.9915V10.3415L15 8.67484V7.49984H13.825L12.1583 9.1665H9.50833ZM10 10.8332H11.6667V12.4998H10V10.8332Z" fill="black"/>
</svg>
