<svg width="148" height="28" viewBox="0 0 148 28" fill="none" xmlns="http://www.w3.org/2000/svg">
<path d="M13.6771 0H25.6447L35.9026 9.59494V20.666H13.6771V0Z" fill="#72B819"/>
<rect x="10.258" width="6.83862" height="3.44434" fill="#72B819"/>
<rect x="6.83862" y="8.61084" width="11.9676" height="3.44434" fill="#72B819"/>
<rect x="3.41949" y="5.1665" width="8.54827" height="1.72217" fill="#72B819"/>
<rect y="13.7773" width="11.9676" height="1.72217" fill="#72B819"/>
<rect x="3.41949" y="17.2217" width="13.6772" height="3.44434" fill="#72B819"/>
<path d="M23.935 23.3882C26.3826 23.3882 28.3543 21.3915 28.3543 18.9438C28.3543 16.4962 26.3826 14.4995 23.935 14.4995C21.4874 14.4995 19.5157 16.4962 19.5157 18.9438C19.5157 21.3915 21.4874 23.3882 23.935 23.3882Z" fill="#72B819" stroke="white" stroke-width="2"/>
<path d="M51.1488 21.0793C48.9593 21.0793 47.1864 20.4938 45.8301 19.3227C44.4738 18.1321 43.7472 16.4829 43.6503 14.3749L43.6212 13.2039L43.6503 12.0035C43.7278 9.89558 44.4447 8.24632 45.801 7.05572C47.1767 5.86513 48.9593 5.26983 51.1488 5.26983C52.7958 5.26983 54.1812 5.57236 55.305 6.17742C56.4482 6.76296 57.291 7.47536 57.8336 8.31463C58.3955 9.13438 58.6958 9.88582 58.7346 10.5689C58.7539 10.7641 58.6861 10.9398 58.5311 11.0959C58.3955 11.2326 58.2211 11.3009 58.008 11.3009H54.3168C54.1037 11.3009 53.939 11.2521 53.8227 11.1545C53.7065 11.0569 53.5999 10.9105 53.503 10.7153C53.2705 10.1103 52.9702 9.68088 52.602 9.42715C52.2533 9.17342 51.7979 9.04655 51.236 9.04655C49.6472 9.04655 48.8237 10.081 48.7656 12.1499L48.7365 13.2624L48.7656 14.2286C48.8043 15.2825 49.0271 16.0632 49.434 16.5707C49.8603 17.0587 50.461 17.3026 51.236 17.3026C51.8367 17.3026 52.3114 17.1758 52.6602 16.922C53.0089 16.6683 53.2899 16.2389 53.503 15.6338C53.5999 15.4387 53.7065 15.2923 53.8227 15.1947C53.939 15.0971 54.1037 15.0483 54.3168 15.0483H58.008C58.2017 15.0483 58.3664 15.1166 58.5021 15.2532C58.6571 15.3704 58.7346 15.5265 58.7346 15.7217C58.7346 16.3463 58.4633 17.0782 57.9208 17.9174C57.3976 18.7567 56.5644 19.4984 55.4213 20.1425C54.2781 20.7671 52.8539 21.0793 51.1488 21.0793Z" fill="#303030"/>
<path d="M65.8798 21.0793C64.8529 21.0793 63.9131 20.8842 63.0606 20.4938C62.2274 20.0839 61.5686 19.5374 61.0842 18.8543C60.6192 18.1517 60.3867 17.3807 60.3867 16.5414C60.3867 15.1947 60.9292 14.1114 62.0143 13.2917C63.1187 12.4719 64.63 11.9059 66.5483 11.5936L70.1813 11.0374V10.6275C70.1813 9.88582 70.0263 9.33932 69.7163 8.988C69.4062 8.63667 68.8831 8.46101 68.1468 8.46101C67.7012 8.46101 67.333 8.53908 67.0424 8.69523C66.7517 8.85137 66.4514 9.06607 66.1414 9.33932C65.8701 9.57353 65.6667 9.72968 65.531 9.80775C65.4729 9.96389 65.3663 10.042 65.2113 10.042H62.0433C61.8496 10.042 61.6849 9.98341 61.5492 9.8663C61.433 9.72968 61.3845 9.57353 61.4039 9.39787C61.4233 8.87089 61.6752 8.28535 62.1596 7.64126C62.6634 6.99717 63.419 6.44091 64.4266 5.97248C65.4535 5.50405 66.713 5.26983 68.2049 5.26983C70.5882 5.26983 72.3514 5.80658 73.4946 6.88006C74.6378 7.93403 75.2094 9.35884 75.2094 11.1545V20.0547C75.2094 20.2498 75.1416 20.4255 75.0059 20.5816C74.8703 20.7183 74.6959 20.7866 74.4828 20.7866H71.1113C70.9176 20.7866 70.7432 20.7183 70.5882 20.5816C70.4526 20.4255 70.3847 20.2498 70.3847 20.0547V19.03C69.9585 19.635 69.3578 20.1327 68.5828 20.5231C67.8271 20.8939 66.9261 21.0793 65.8798 21.0793ZM67.2458 17.7418C68.1371 17.7418 68.854 17.449 69.3966 16.8635C69.9585 16.2779 70.2394 15.4192 70.2394 14.2871V13.8772L67.769 14.3164C66.0251 14.6287 65.1532 15.2435 65.1532 16.1608C65.1532 16.6488 65.3566 17.0391 65.7635 17.3319C66.1704 17.6052 66.6645 17.7418 67.2458 17.7418Z" fill="#303030"/>
<path d="M79.2157 20.7866C79.0026 20.7866 78.8282 20.7183 78.6925 20.5816C78.5569 20.445 78.4891 20.2694 78.4891 20.0547V6.29452C78.4891 6.07983 78.5569 5.90417 78.6925 5.76754C78.8282 5.63092 79.0026 5.5626 79.2157 5.5626H82.5581C82.7712 5.5626 82.9456 5.64068 83.0812 5.79682C83.2362 5.93344 83.3137 6.09935 83.3137 6.29452V7.4656C84.3794 6.19694 85.8133 5.5626 87.6152 5.5626H88.8941C89.1072 5.5626 89.2816 5.63092 89.4172 5.76754C89.5528 5.90417 89.6207 6.07983 89.6207 6.29452V9.31004C89.6207 9.50522 89.5528 9.68088 89.4172 9.83703C89.2816 9.97365 89.1072 10.042 88.8941 10.042H86.0748C85.2804 10.042 84.6604 10.2664 84.2147 10.7153C83.7885 11.1447 83.5753 11.7595 83.5753 12.5598V20.0547C83.5753 20.2694 83.4978 20.445 83.3428 20.5816C83.2072 20.7183 83.0328 20.7866 82.8196 20.7866H79.2157Z" fill="#303030"/>
<path d="M99.4182 20.7866C95.4074 20.7866 93.4019 18.8641 93.4019 15.019V9.39787H91.1349C90.9218 9.39787 90.7377 9.32956 90.5827 9.19293C90.4471 9.05631 90.3793 8.88065 90.3793 8.66595V6.29452C90.3793 6.07983 90.4471 5.90417 90.5827 5.76754C90.7377 5.63092 90.9218 5.5626 91.1349 5.5626H93.4019V4.17626C93.4019 3.96156 93.4698 3.7859 93.6054 3.64927C93.7604 3.51265 93.9348 3.44434 94.1285 3.44434H97.5C97.7131 3.44434 97.8875 3.51265 98.0231 3.64927C98.1588 3.7859 98.2266 3.96156 98.2266 4.17626V5.5626H101.86C102.073 5.5626 102.247 5.63092 102.383 5.76754C102.538 5.90417 102.615 6.07983 102.615 6.29452V8.66595C102.615 8.88065 102.538 9.05631 102.383 9.19293C102.247 9.32956 102.073 9.39787 101.86 9.39787H98.2266V14.6092C98.2266 16.0535 98.7788 16.7756 99.8832 16.7756H102.121C102.334 16.7756 102.509 16.844 102.644 16.9806C102.78 17.1172 102.848 17.2929 102.848 17.5076V20.0547C102.848 20.2498 102.78 20.4255 102.644 20.5816C102.509 20.7183 102.334 20.7866 102.121 20.7866H99.4182Z" fill="#303030"/>
<path d="M114.297 20.7866C114.084 20.7866 113.909 20.7183 113.774 20.5816C113.638 20.445 113.57 20.2694 113.57 20.0547V6.29452C113.57 6.07983 113.638 5.90417 113.774 5.76754C113.909 5.63092 114.084 5.5626 114.297 5.5626H117.639C117.853 5.5626 118.027 5.63092 118.163 5.76754C118.318 5.90417 118.395 6.07983 118.395 6.29452V7.40705C118.918 6.76296 119.587 6.24573 120.4 5.85537C121.234 5.46501 122.173 5.26983 123.22 5.26983C124.925 5.26983 126.31 5.85537 127.376 7.02645C128.442 8.178 128.974 9.79799 128.974 11.8864V20.0547C128.974 20.2498 128.907 20.4255 128.771 20.5816C128.635 20.7183 128.461 20.7866 128.248 20.7866H124.586C124.392 20.7866 124.218 20.7183 124.063 20.5816C123.927 20.4255 123.859 20.2498 123.859 20.0547V12.0621C123.859 11.1447 123.636 10.4421 123.191 9.95413C122.745 9.44667 122.106 9.19293 121.272 9.19293C120.459 9.19293 119.819 9.44667 119.354 9.95413C118.889 10.4421 118.657 11.1447 118.657 12.0621V20.0547C118.657 20.2498 118.589 20.4255 118.453 20.5816C118.318 20.7183 118.143 20.7866 117.93 20.7866H114.297Z" fill="#303030"/>
<path d="M139.658 27.2275C137.817 27.2275 136.325 26.925 135.182 26.3199C134.039 25.7148 133.215 25.022 132.711 24.2412C132.227 23.4605 131.985 22.8067 131.985 22.2797C131.985 22.104 132.062 21.9479 132.217 21.8113C132.372 21.6746 132.547 21.6063 132.74 21.6063H136.432C136.625 21.6063 136.771 21.6454 136.868 21.7234C136.984 21.821 137.09 21.9772 137.187 22.1919C137.381 22.6408 137.643 22.9921 137.972 23.2458C138.301 23.5191 138.815 23.6557 139.512 23.6557C140.404 23.6557 141.063 23.4313 141.489 22.9823C141.915 22.5529 142.128 21.821 142.128 20.7866V18.825C141.14 19.918 139.726 20.4645 137.885 20.4645C135.928 20.4645 134.426 19.8888 133.38 18.7372C132.353 17.5661 131.791 15.8778 131.694 13.6723L131.665 12.8818C131.665 10.5202 132.188 8.66595 133.235 7.31922C134.281 5.95296 135.831 5.26983 137.885 5.26983C138.873 5.26983 139.745 5.46501 140.501 5.85537C141.256 6.22621 141.896 6.73368 142.419 7.37777V6.29452C142.419 6.07983 142.487 5.90417 142.622 5.76754C142.777 5.63092 142.952 5.5626 143.145 5.5626H146.488C146.701 5.5626 146.875 5.64068 147.011 5.79682C147.166 5.93344 147.243 6.09935 147.243 6.29452V20.3767C147.243 22.6017 146.585 24.2998 145.267 25.4709C143.95 26.642 142.08 27.2275 139.658 27.2275ZM139.454 16.6585C140.326 16.6585 140.975 16.395 141.402 15.8681C141.828 15.3216 142.07 14.6384 142.128 13.8187C142.148 13.6821 142.157 13.3795 142.157 12.9111C142.157 12.4622 142.148 12.1694 142.128 12.0328C142.089 11.213 141.847 10.5397 141.402 10.0127C140.975 9.46619 140.326 9.19293 139.454 9.19293C138.544 9.19293 137.885 9.46619 137.478 10.0127C137.071 10.5592 136.848 11.3106 136.809 12.267L136.78 12.9111C136.78 14.0627 136.974 14.98 137.362 15.6631C137.749 16.3267 138.447 16.6585 139.454 16.6585Z" fill="#303030"/>
<path d="M105.981 20.7865C105.768 20.7865 105.593 20.7182 105.458 20.5815C105.322 20.4449 105.254 20.2692 105.254 20.0546V6.29442C105.254 6.07972 105.322 5.90406 105.458 5.76744C105.593 5.63081 105.768 5.5625 105.981 5.5625H109.41C109.624 5.5625 109.798 5.63081 109.934 5.76744C110.069 5.90406 110.137 6.07972 110.137 6.29442V20.0546C110.137 20.2497 110.069 20.4254 109.934 20.5815C109.798 20.7182 109.624 20.7865 109.41 20.7865H105.981Z" fill="#A0EB41"/>
</svg>
