<svg width="20" height="20" viewBox="0 0 20 20" fill="none" xmlns="http://www.w3.org/2000/svg">
<path d="M11.4884 5.2121L10.5883 5.98358C9.96367 5.38425 9.19992 4.92897 8.3509 4.67147L8.6966 3.54128C9.76234 3.86511 10.717 4.44636 11.4884 5.2121ZM12.0147 5.79843L11.1171 6.56776C11.6326 7.2244 12.004 7.92034 12.1829 8.76542L13.386 8.84417C13.1891 7.70659 12.7064 6.66569 12.0147 5.79843ZM7.58062 4.49675L7.9293 3.3569C6.60059 3.123 5.29266 3.28483 4.12801 3.77718L4.62113 4.85194C5.54695 4.47862 6.51762 4.34557 7.58062 4.49675ZM8.58836 16.4865L8.0698 15.4014C4.99207 16.1633 1.49449 14.1565 1.18152 10.2924L0 10.3192C0.375781 15.4702 5.24453 17.5259 8.58836 16.4865ZM1.1959 9.50417C1.35762 7.673 2.40996 6.09393 3.91594 5.20386L3.42109 4.12534C1.50313 5.21307 0.167773 7.21292 0.00859375 9.53112L1.1959 9.50417ZM8.30254 10.971L20 10.0651V9.75003L8.14496 8.92296C8.60668 9.51487 8.60152 10.2103 8.3025 10.971L8.30254 10.971ZM7.94805 9.90761C7.94805 9.06179 7.02617 8.5303 6.29258 8.95323C5.55906 9.37612 5.55906 10.4391 6.29258 10.862C7.02617 11.2849 7.94805 10.7534 7.94805 9.90761Z" fill="black"/>
</svg>
