<svg width="16" height="17" viewBox="0 0 16 17" fill="none" xmlns="http://www.w3.org/2000/svg">
<path d="M15.9577 6.24401C15.9074 6.09592 15.8149 5.9658 15.6915 5.86971C15.5681 5.77362 15.4192 5.71576 15.2633 5.70328L10.7025 5.34093L8.72887 0.972711C8.66602 0.83202 8.56378 0.712523 8.43451 0.628643C8.30523 0.544763 8.15444 0.500085 8.00033 0.5C7.84622 0.499916 7.69537 0.544428 7.56601 0.628166C7.43664 0.711905 7.33427 0.831289 7.27126 0.971912L5.29765 5.34093L0.736825 5.70328C0.583589 5.71542 0.437094 5.77144 0.314867 5.86465C0.19264 5.95785 0.099856 6.08429 0.0476158 6.22884C-0.00462433 6.37339 -0.0141088 6.52992 0.0202971 6.67972C0.054703 6.82951 0.131542 6.96623 0.241623 7.0735L3.61204 10.3587L2.42004 15.5196C2.38384 15.6758 2.39544 15.8393 2.45333 15.9888C2.51122 16.1384 2.61273 16.2671 2.74468 16.3582C2.87663 16.4494 3.03293 16.4988 3.19331 16.5C3.35368 16.5012 3.51072 16.4542 3.64404 16.3651L8.00007 13.4615L12.3561 16.3651C12.4924 16.4555 12.6531 16.5021 12.8166 16.4985C12.9801 16.4949 13.1386 16.4414 13.2708 16.345C13.403 16.2487 13.5025 16.1142 13.5559 15.9596C13.6093 15.805 13.6142 15.6378 13.5697 15.4804L12.1065 10.3611L15.7353 7.0959C15.9729 6.88153 16.0601 6.54717 15.9577 6.24401V6.24401Z" fill="url(#paint0_linear_2603_1632)"/>
<defs>
<linearGradient id="paint0_linear_2603_1632" x1="16.5091" y1="-0.906604" x2="-0.985454" y2="17.9066" gradientUnits="userSpaceOnUse">
<stop stop-color="#FFD700"/>
<stop offset="1" stop-color="#FDEC64"/>
</linearGradient>
</defs>
</svg>
