<svg width="20" height="20" viewBox="0 0 20 20" fill="none" xmlns="http://www.w3.org/2000/svg">
<path fill-rule="evenodd" clip-rule="evenodd" d="M10.0437 1.0415H9.95699C9.20783 1.0415 8.58366 1.0415 8.08866 1.10817C7.56533 1.17817 7.09283 1.33317 6.71366 1.71234C6.33366 2.09234 6.17866 2.56484 6.10866 3.08734C6.06116 3.44317 6.04699 4.29234 6.04366 5.02067C4.35866 5.0765 3.34616 5.27317 2.64366 5.9765C1.66699 6.95234 1.66699 8.524 1.66699 11.6665C1.66699 14.809 1.66699 16.3807 2.64366 17.3565C3.61949 18.3332 5.19116 18.3332 8.33366 18.3332H11.667C14.8095 18.3332 16.3812 18.3332 17.357 17.3565C18.3337 16.3807 18.3337 14.809 18.3337 11.6665C18.3337 8.524 18.3337 6.95234 17.357 5.9765C16.6545 5.27317 15.642 5.0765 13.957 5.0215C13.9537 4.29234 13.9403 3.44317 13.892 3.08817C13.822 2.56484 13.667 2.09234 13.287 1.71317C12.9078 1.33317 12.4353 1.17817 11.912 1.10817C11.417 1.0415 10.792 1.0415 10.0437 1.0415ZM12.707 5.0015C12.7028 4.29567 12.6912 3.5365 12.6537 3.254C12.6012 2.86984 12.512 2.70484 12.4037 2.5965C12.2953 2.48817 12.1303 2.399 11.7453 2.3465C11.3437 2.29317 10.8037 2.2915 10.0003 2.2915C9.19699 2.2915 8.65699 2.29317 8.25449 2.34734C7.87033 2.399 7.70533 2.48817 7.59699 2.59734C7.48866 2.70567 7.39949 2.86984 7.34699 3.254C7.30949 3.53734 7.29699 4.29567 7.29366 5.0015C7.61949 4.99984 7.96699 4.99984 8.33366 4.99984H11.667C12.0345 4.99984 12.3812 4.99984 12.707 5.0015ZM10.0003 7.70817C10.1661 7.70817 10.3251 7.77402 10.4423 7.89123C10.5595 8.00844 10.6253 8.16741 10.6253 8.33317V8.3415C11.5328 8.56984 12.292 9.28567 12.292 10.2773C12.292 10.4431 12.2261 10.6021 12.1089 10.7193C11.9917 10.8365 11.8328 10.9023 11.667 10.9023C11.5012 10.9023 11.3423 10.8365 11.2251 10.7193C11.1078 10.6021 11.042 10.4431 11.042 10.2773C11.042 9.95734 10.687 9.514 10.0003 9.514C9.31366 9.514 8.95866 9.95734 8.95866 10.2773C8.95866 10.5973 9.31366 11.0415 10.0003 11.0415C11.1545 11.0415 12.292 11.8415 12.292 13.0557C12.292 14.0473 11.5328 14.7623 10.6253 14.9915V14.9998C10.6253 15.1656 10.5595 15.3246 10.4423 15.4418C10.3251 15.559 10.1661 15.6248 10.0003 15.6248C9.83457 15.6248 9.67559 15.559 9.55838 15.4418C9.44117 15.3246 9.37533 15.1656 9.37533 14.9998V14.9915C8.46783 14.7632 7.70866 14.0473 7.70866 13.0557C7.70866 12.8899 7.77451 12.7309 7.89172 12.6137C8.00893 12.4965 8.1679 12.4307 8.33366 12.4307C8.49942 12.4307 8.65839 12.4965 8.7756 12.6137C8.89281 12.7309 8.95866 12.8899 8.95866 13.0557C8.95866 13.3757 9.31366 13.819 10.0003 13.819C10.687 13.819 11.042 13.3757 11.042 13.0557C11.042 12.7357 10.687 12.2915 10.0003 12.2915C8.84616 12.2915 7.70866 11.4915 7.70866 10.2773C7.70866 9.28567 8.46783 8.56984 9.37533 8.3415V8.33317C9.37533 8.16741 9.44117 8.00844 9.55838 7.89123C9.67559 7.77402 9.83457 7.70817 10.0003 7.70817Z" fill="#34C759"/>
</svg>
