<svg width="20" height="20" viewBox="0 0 20 20" fill="none" xmlns="http://www.w3.org/2000/svg">
<path d="M1.66699 3.27314C1.66713 2.9817 1.74655 2.69579 1.89674 2.44604C2.04694 2.19628 2.26224 1.99209 2.5196 1.85533C2.77696 1.71857 3.06668 1.6544 3.35771 1.66969C3.64875 1.68499 3.93014 1.77917 4.17175 1.94214C4.41336 2.10512 4.60608 2.33075 4.72927 2.59487C4.85246 2.859 4.90148 3.15166 4.87108 3.4415C4.84067 3.73135 4.73199 4.00747 4.55667 4.24027C4.38135 4.47308 4.146 4.65381 3.87583 4.7631V9.09643H9.09671V4.7631C8.75111 4.6233 8.4649 4.36765 8.28712 4.03998C8.10934 3.7123 8.05106 3.33299 8.12227 2.96705C8.19348 2.60112 8.38975 2.27134 8.67744 2.03424C8.96512 1.79714 9.32632 1.66748 9.69912 1.66748C10.0719 1.66748 10.4331 1.79714 10.7208 2.03424C11.0085 2.27134 11.2047 2.60112 11.276 2.96705C11.3472 3.33299 11.2889 3.7123 11.1111 4.03998C10.9333 4.36765 10.6471 4.6233 10.3015 4.7631V9.09643H12.912C13.6863 9.09643 14.2067 9.09482 14.5947 9.04342C14.965 8.99281 15.124 8.90687 15.2284 8.80245C15.3328 8.69804 15.4188 8.539 15.4694 8.16792C15.5208 7.78077 15.5224 7.26029 15.5224 6.48599V4.7631C15.1768 4.6233 14.8906 4.36765 14.7128 4.03998C14.535 3.7123 14.4768 3.33299 14.548 2.96705C14.6192 2.60112 14.8154 2.27134 15.1031 2.03424C15.3908 1.79714 15.752 1.66748 16.1248 1.66748C16.4976 1.66748 16.8588 1.79714 17.1465 2.03424C17.4342 2.27134 17.6304 2.60112 17.7017 2.96705C17.7729 3.33299 17.7146 3.7123 17.5368 4.03998C17.359 4.36765 17.0728 4.6233 16.7272 4.7631V6.52776C16.7272 7.24904 16.7272 7.85145 16.663 8.32856C16.5955 8.83298 16.4461 9.2884 16.0798 9.65386C15.7144 10.0201 15.259 10.1695 14.7545 10.237C14.2774 10.3012 13.6758 10.3012 12.9537 10.3012H10.3015V14.6346C10.6471 14.7744 10.9333 15.03 11.1111 15.3577C11.2889 15.6854 11.3472 16.0647 11.276 16.4306C11.2047 16.7966 11.0085 17.1263 10.7208 17.3634C10.4331 17.6005 10.0719 17.7302 9.69912 17.7302C9.32632 17.7302 8.96512 17.6005 8.67744 17.3634C8.38975 17.1263 8.19348 16.7966 8.12227 16.4306C8.05106 16.0647 8.10934 15.6854 8.28712 15.3577C8.4649 15.03 8.75111 14.7744 9.09671 14.6346V10.3012H3.87583V14.6346C4.22142 14.7744 4.50764 15.03 4.68542 15.3577C4.8632 15.6854 4.92147 16.0647 4.85026 16.4306C4.77905 16.7966 4.58279 17.1263 4.2951 17.3634C4.00741 17.6005 3.64622 17.7302 3.27342 17.7302C2.90062 17.7302 2.53943 17.6005 2.25174 17.3634C1.96405 17.1263 1.76779 16.7966 1.69657 16.4306C1.62536 16.0647 1.68364 15.6854 1.86142 15.3577C2.0392 15.03 2.32542 14.7744 2.67101 14.6346V4.7631C2.37425 4.64305 2.12012 4.43708 1.94123 4.17161C1.76234 3.90613 1.66684 3.59326 1.66699 3.27314Z" fill="black"/>
<path fill-rule="evenodd" clip-rule="evenodd" d="M13.916 12.1083C13.916 11.9485 13.9795 11.7953 14.0925 11.6823C14.2054 11.5693 14.3587 11.5059 14.5184 11.5059H16.3546C17.459 11.5059 18.3337 12.4167 18.3337 13.5139C18.3351 13.9267 18.2094 14.33 17.9736 14.6689C17.7377 15.0078 17.4033 15.2658 17.0156 15.4079L18.2445 17.4159C18.2859 17.4833 18.3135 17.5583 18.3259 17.6364C18.3383 17.7146 18.3352 17.7944 18.3167 17.8713C18.2983 17.9483 18.2648 18.0208 18.2183 18.0848C18.1718 18.1488 18.1132 18.2031 18.0457 18.2444C17.9783 18.2858 17.9033 18.3134 17.8252 18.3258C17.7471 18.3382 17.6672 18.3351 17.5903 18.3166C17.5134 18.2981 17.4408 18.2647 17.3768 18.2182C17.3128 18.1717 17.2586 18.1131 17.2172 18.0456L15.6726 15.5219H15.1208V17.7308C15.1208 17.8905 15.0574 18.0437 14.9444 18.1567C14.8314 18.2697 14.6782 18.3332 14.5184 18.3332C14.3587 18.3332 14.2054 18.2697 14.0925 18.1567C13.9795 18.0437 13.916 17.8905 13.916 17.7308V12.1083ZM15.1208 14.3171H16.3546C16.7706 14.3171 17.1289 13.9693 17.1289 13.5139C17.1289 13.0585 16.7706 12.7107 16.3546 12.7107H15.1208V14.3171Z" fill="black"/>
</svg>
