<svg width="20" height="20" viewBox="0 0 20 20" fill="none" xmlns="http://www.w3.org/2000/svg">
<path d="M19.9525 8.08144L18.7858 5.16586C18.6868 4.91904 18.5159 4.70766 18.2952 4.55913C18.0746 4.41059 17.8144 4.33175 17.5483 4.33284H14.6667V3.66642C14.6667 3.48967 14.5964 3.32017 14.4714 3.19519C14.3464 3.07021 14.1768 3 14 3H1.33333C0.979711 3 0.640573 3.14042 0.390524 3.39038C0.140476 3.64033 0 3.97935 0 4.33284V13.6627C0 14.0162 0.140476 14.3552 0.390524 14.6051C0.640573 14.8551 0.979711 14.9955 1.33333 14.9955H2.75C2.89687 15.5689 3.23047 16.0771 3.69821 16.4401C4.16595 16.803 4.74122 17 5.33333 17C5.92545 17 6.50072 16.803 6.96846 16.4401C7.4362 16.0771 7.7698 15.5689 7.91667 14.9955H12.0833C12.2302 15.5689 12.5638 16.0771 13.0315 16.4401C13.4993 16.803 14.0746 17 14.6667 17C15.2588 17 15.8341 16.803 16.3018 16.4401C16.7695 16.0771 17.1031 15.5689 17.25 14.9955H18.6667C19.0203 14.9955 19.3594 14.8551 19.6095 14.6051C19.8595 14.3552 20 14.0162 20 13.6627V8.33134C20.0001 8.24579 19.984 8.16099 19.9525 8.08144ZM5.33333 15.6619C5.06963 15.6619 4.81184 15.5838 4.59257 15.4373C4.37331 15.2909 4.20241 15.0827 4.10149 14.8392C4.00058 14.5956 3.97417 14.3276 4.02562 14.0691C4.07707 13.8105 4.20405 13.573 4.39052 13.3866C4.57699 13.2002 4.81457 13.0733 5.07321 13.0219C5.33185 12.9704 5.59994 12.9968 5.84358 13.0977C6.08721 13.1986 6.29545 13.3694 6.44196 13.5886C6.58847 13.8078 6.66667 14.0655 6.66667 14.3291C6.66667 14.6826 6.52619 15.0216 6.27614 15.2716C6.02609 15.5215 5.68696 15.6619 5.33333 15.6619ZM1.33333 9.66418V4.33284H13.3333V9.66418H1.33333ZM14.6667 15.6619C14.403 15.6619 14.1452 15.5838 13.9259 15.4373C13.7066 15.2909 13.5357 15.0827 13.4348 14.8392C13.3339 14.5956 13.3075 14.3276 13.359 14.0691C13.4104 13.8105 13.5374 13.573 13.7239 13.3866C13.9103 13.2002 14.1479 13.0733 14.4065 13.0219C14.6652 12.9704 14.9333 12.9968 15.1769 13.0977C15.4205 13.1986 15.6288 13.3694 15.7753 13.5886C15.9218 13.8078 16 14.0655 16 14.3291C16 14.6826 15.8595 15.0216 15.6095 15.2716C15.3594 15.5215 15.0203 15.6619 14.6667 15.6619ZM14.6667 7.66492V5.66567H17.5483L18.3483 7.66492H14.6667Z" fill="#90A4AF"/>
</svg>
