<svg width="20" height="20" viewBox="0 0 20 20" fill="none" xmlns="http://www.w3.org/2000/svg">
<g clip-path="url(#clip0_2620_2873)">
<path d="M8.5357 13.5949L5.00016 10.0594L6.17867 8.88086L8.5357 11.2379L13.2497 6.52383L14.4283 7.70234L8.5357 13.5949Z" fill="#34C759"/>
<path fill-rule="evenodd" clip-rule="evenodd" d="M0.833496 10.0002C0.833496 4.93755 4.93755 0.833496 10.0002 0.833496C15.0628 0.833496 19.1668 4.93755 19.1668 10.0002C19.1668 15.0628 15.0628 19.1668 10.0002 19.1668C4.93755 19.1668 0.833496 15.0628 0.833496 10.0002ZM10.0002 17.5002C5.85803 17.5002 2.50016 14.1423 2.50016 10.0002C2.50016 5.85803 5.85803 2.50016 10.0002 2.50016C14.1423 2.50016 17.5002 5.85803 17.5002 10.0002C17.5002 14.1423 14.1423 17.5002 10.0002 17.5002Z" fill="#34C759"/>
</g>
<defs>
<clipPath id="clip0_2620_2873">
<rect width="20" height="20" fill="white"/>
</clipPath>
</defs>
</svg>
